<?xml version="1.0" encoding="UTF-8"?>
<svg xmlns="http://www.w3.org/2000/svg" xmlns:xlink="http://www.w3.org/1999/xlink" width="71pt" height="71pt" viewBox="0 0 71 71" version="1.1">
<g id="surface1">
<path style=" stroke:none;fill-rule:nonzero;fill:rgb(22.745098%,52.54902%,59.215686%);fill-opacity:1;" d="M 35.5 5.917969 C 22.425781 5.917969 11.832031 7.394531 11.832031 17.75 L 11.832031 47.332031 C 11.847656 49.84375 12.921875 52.226562 14.792969 53.902344 L 14.792969 59.167969 C 14.792969 60.800781 16.117188 62.125 17.75 62.125 L 20.707031 62.125 C 22.34375 62.125 23.667969 60.800781 23.667969 59.167969 L 23.667969 56.207031 L 41.417969 56.207031 C 39.648438 53.03125 38.636719 49.488281 38.457031 45.855469 C 38.511719 40.539062 41.136719 35.578125 45.5 32.542969 L 17.75 32.542969 L 17.75 17.75 L 53.25 17.75 L 53.25 29.582031 C 53.742188 29.554688 54.238281 29.554688 54.730469 29.582031 C 56.230469 29.589844 57.726562 29.808594 59.167969 30.234375 L 59.167969 17.75 C 59.167969 7.394531 48.574219 5.917969 35.5 5.917969 M 22.1875 41.417969 C 24.636719 41.417969 26.625 43.402344 26.625 45.855469 C 26.625 48.304688 24.636719 50.292969 22.1875 50.292969 C 19.738281 50.292969 17.75 48.304688 17.75 45.855469 C 17.75 43.402344 19.738281 41.417969 22.1875 41.417969 M 54.730469 35.5 C 49.039062 35.5625 44.4375 40.164062 44.375 45.855469 C 44.375 53.546875 54.730469 65.082031 54.730469 65.082031 C 54.730469 65.082031 65.082031 53.546875 65.082031 45.855469 C 65.019531 40.164062 60.421875 35.5625 54.730469 35.5 M 54.730469 49.699219 C 52.769531 49.699219 51.179688 48.109375 51.179688 46.148438 C 51.179688 44.1875 52.769531 42.601562 54.730469 42.601562 C 56.632812 42.730469 58.148438 44.246094 58.277344 46.148438 C 58.320312 47.105469 57.960938 48.03125 57.285156 48.707031 C 56.609375 49.382812 55.683594 49.742188 54.730469 49.699219 Z M 54.730469 49.699219 "/>
</g>
</svg>
