<?xml version="1.0" encoding="UTF-8"?>
<svg xmlns="http://www.w3.org/2000/svg" xmlns:xlink="http://www.w3.org/1999/xlink" width="25pt" height="25pt" viewBox="0 0 25 25" version="1.1">
<g id="surface1">
<path style=" stroke:none;fill-rule:nonzero;fill:rgb(22.745098%,52.54902%,59.215686%);fill-opacity:1;" d="M 12.5 2.082031 C 7.894531 2.082031 4.167969 2.605469 4.167969 6.25 L 4.167969 16.667969 C 4.171875 17.550781 4.550781 18.390625 5.207031 18.980469 L 5.207031 20.832031 C 5.207031 21.410156 5.675781 21.875 6.25 21.875 L 7.292969 21.875 C 7.867188 21.875 8.332031 21.410156 8.332031 20.832031 L 8.332031 19.792969 L 14.582031 19.792969 C 13.960938 18.671875 13.605469 17.425781 13.542969 16.144531 C 13.558594 14.273438 14.484375 12.527344 16.019531 11.457031 L 6.25 11.457031 L 6.25 6.25 L 18.75 6.25 L 18.75 10.417969 C 18.921875 10.40625 19.097656 10.40625 19.269531 10.417969 C 19.800781 10.417969 20.324219 10.496094 20.832031 10.644531 L 20.832031 6.25 C 20.832031 2.605469 17.105469 2.082031 12.5 2.082031 M 7.8125 14.582031 C 8.675781 14.582031 9.375 15.28125 9.375 16.144531 C 9.375 17.007812 8.675781 17.707031 7.8125 17.707031 C 6.949219 17.707031 6.25 17.007812 6.25 16.144531 C 6.25 15.28125 6.949219 14.582031 7.8125 14.582031 M 19.269531 12.5 C 17.265625 12.523438 15.648438 14.140625 15.625 16.144531 C 15.625 18.855469 19.269531 22.917969 19.269531 22.917969 C 19.269531 22.917969 22.917969 18.855469 22.917969 16.144531 C 22.894531 14.140625 21.273438 12.523438 19.269531 12.5 M 19.269531 17.5 C 18.582031 17.5 18.019531 16.941406 18.019531 16.25 C 18.019531 15.558594 18.582031 15 19.269531 15 C 19.941406 15.046875 20.476562 15.578125 20.519531 16.25 C 20.535156 16.585938 20.410156 16.914062 20.171875 17.148438 C 19.933594 17.386719 19.605469 17.515625 19.269531 17.5 Z M 19.269531 17.5 "/>
</g>
</svg>
